<svg id="Layer_1" data-name="Layer 1" xmlns="http://www.w3.org/2000/svg" xmlns:xlink="http://www.w3.org/1999/xlink" viewBox="0 0 2950.79 3060.38"><defs><style>.cls-1{fill:url(#linear-gradient);}</style><linearGradient id="linear-gradient" x1="417.15" y1="1749.31" x2="2981.1" y2="1749.31" gradientUnits="userSpaceOnUse"><stop offset="0" stop-color="#dc1e25"/><stop offset="1" stop-color="#e21e1e"/></linearGradient></defs><path class="cls-1" d="M1077,220.9c-10.8,2.3-18.3,5.5-32.3,13.8C1035.5,240.1,849.1,350.9,669,458c-40.1,23.9-53.8,32-108.5,64.5-19.2,11.4-51.6,30.7-72,42.8s-45.3,26.9-55.5,33-21.6,12.9-25.5,15.2-20.5,12.2-37,22c-72.9,43.3-71.6,42.4-79,49.9-18.6,18.8-22.7,48-11.4,80.4,7.5,21.4,22.8,45.2,39.1,60.8,9.2,8.8,13.8,12.1,42.8,30.4,26.2,16.5,90.8,59.3,120.5,79.8,55.2,38.1,84.1,58.6,191,135.6,166.3,119.7,232.1,165.2,316.5,218.9,40.2,25.6,54.8,32.6,79.5,38.5,9.8,2.3,13.1,2.6,30,2.7,21.1,0,29-1.4,44.4-7.9,32.3-13.6,51.7-42.8,49.8-74.6-.7-11.5-2.6-18.9-7.7-29.7-5.4-11.5-12.9-22-23.5-32.8-11-11.2-21.9-19.3-47.5-35.5-61-38.5-117.6-76.5-188-126-44.6-31.4-147.3-105.2-150.3-108-1.7-1.6,1.6-1.7,52.7-1.7,53.5,0,120.2-.9,132.1-1.8,3.3-.2,15.7-.7,27.5-1s24.4-.8,28-1,12.6-.7,20-1,17.3-.8,22-1.1c152.3-8.8,233.9-16.9,440-43.9,227-29.7,314.1-39,423-45,70.9-3.9,166.6-4.1,224.5-.5,107.5,6.7,196.9,21,277.5,44.5,113.9,33.2,218.1,84.7,306,151.3,144.2,109.3,231.8,250.6,251.9,406.4,3.5,26.8,4.4,41.6,4.4,70.8.1,53.1-6.4,100.7-20.8,152.5-6.8,24.5-20,62.5-21.7,62.5-.3,0-1.6-3-2.9-6.8-4.1-12.6-13-36.6-20.1-54.2q-69.3-171.9-182.4-270.6-118.65-103.65-284.4-125.8c-28.5-3.9-44.8-4.8-85-5.1-55.3-.4-76.9.9-110.7,6.6a443.05,443.05,0,0,0-212.8,99.7c-13,11.1-37.9,36.1-48.6,48.7-59.1,70.3-93.5,151-103.5,243-2.6,23.8-2.4,67.7.5,88.7,14.6,108.6,64.9,206.6,149.6,291.3,129.6,129.6,315.9,205.8,510.5,208.8a729.75,729.75,0,0,0,192.1-22.3c10.8-2.7,20.3-5,21-5.2,1.2-.3,1.4,6.4,1.1,41.2-.1,22.8-.7,49.4-1.2,59s-1.5,29.4-2,44c-4.9,132.6-19.7,235.3-46.9,325-48.7,160.7-133.1,271-259,339-81.7,44-189.6,70.4-304.6,74.5-39.3,1.4-56.4,4.4-74,13.1-24.2,11.8-35.9,32.9-32.6,58.8,6,46.1,52.2,94.8,107,112.6,18.2,5.9,22.8,6.5,49.1,6.5,65.4,0,148.7-9.2,219-24.1,126.3-26.8,235.4-76.3,321.5-145.8q252.75-204,276.5-648.6c5.9-110.4,3.4-248-6.6-368.1l-2.5-30.7,5.2-4.8c7.9-7.4,32-33.4,42.9-46.4,128.1-152.3,186-364,157.5-575.6-17.6-130.3-68.8-255.8-146.9-360.1-26-34.7-50.6-62.8-86.6-98.5-32.1-31.9-44.1-43-71.5-65.9-170.1-142.3-378.8-229-639-265.3-77.9-10.9-168.2-17.9-253-19.7-48-1-181.4.1-193,1.6-1.6.2-11.5.6-22,1s-22.6.8-27,1-20.6,1.2-36,2q-114,6.15-283,22.6c-48.4,4.6-70.6,6.9-190.5,19.4-217.8,22.7-303.5,30.6-400.5,37-12.6.8-27.3,1.7-32.5,2s-12.2.7-15.5,1-12.5.7-20.5,1-16.7.8-19.5,1c-12.6,1.1-46.9,1.7-46,.7.6-.5,21.5-13.1,46.5-27.9s60.1-35.7,78-46.3,52.8-31.3,77.5-46,65.5-38.8,90.5-53.7c97.5-57.8,160.5-95.2,183.3-108.7,27.3-16.2,35.9-22.9,43.3-33.7,6.4-9.5,9.3-16.9,10.7-28.1,7.5-58.8-68.9-137.9-146.2-151.3C1106.7,218.5,1087.6,218.7,1077,220.9ZM2427.5,1439c40.8,5.2,76.4,18.7,112,42.5,16.3,10.9,23.8,16.7,39.3,30.8,10.8,9.7,28.2,28.2,38.9,41.2,52.4,63.8,97,156.5,119.9,249,10.6,42.8,20.6,102.2,23,137l.7,9.3-4.4,3.2c-18.8,13.6-55.5,33.3-79.9,42.9-147.6,58.1-321.9,40.5-426-42.9-57.1-45.8-89.8-110.2-94.9-186.4-4.5-67.1,26-167.6,71-234.1,16.1-23.9,39.1-48.3,58-61.7,10.6-7.6,28.9-17.3,39.4-21.1C2351.1,1439.2,2395.7,1435,2427.5,1439Z" transform="translate(-273.84 -219.12)"/></svg>